<svg width="69" height="69" viewBox="0 0 69 69" fill="none" xmlns="http://www.w3.org/2000/svg">
<path fill-rule="evenodd" clip-rule="evenodd" d="M36.3004 43.886C37.9276 43.9006 39.5413 43.5924 41.0475 42.9794C42.5536 42.3665 43.9219 41.461 45.0724 40.3159C46.223 39.1708 47.1327 37.8091 47.7485 36.3102C48.3643 34.8114 48.6739 33.2054 48.659 31.5862V31.0011C49.4814 30.378 50.1969 29.6264 50.7777 28.7754C49.9883 29.1169 49.157 29.3531 48.3055 29.4778C49.1809 28.9307 49.8445 28.105 50.1884 27.1348C49.3381 27.606 48.4277 27.9607 47.4818 28.189C47.0834 27.7429 46.5937 27.3867 46.0456 27.1444C45.4974 26.9021 44.9035 26.7793 44.3038 26.7843C43.1541 26.8017 42.0565 27.2639 41.2434 28.0729C40.4304 28.882 39.966 29.9743 39.9486 31.1184C39.9218 31.4354 39.962 31.7546 40.0664 32.0553C38.3342 31.9721 36.6399 31.5214 35.097 30.7335C33.5541 29.9456 32.1982 28.8386 31.1202 27.4867C30.7329 28.165 30.5302 28.9322 30.5323 29.7124C30.5478 30.4204 30.7255 31.1155 31.0518 31.7449C31.3781 32.3742 31.8445 32.9212 32.4153 33.3441C31.7079 33.3298 31.0171 33.1278 30.4145 32.759C30.4134 33.7622 30.7663 34.734 31.4118 35.5047C32.0573 36.2754 32.9542 36.796 33.9461 36.9758C33.5627 37.0787 33.1651 37.1183 32.7689 37.093C32.4891 37.1117 32.2085 37.0718 31.9452 36.9758C32.233 37.8438 32.7832 38.6023 33.5206 39.1473C34.2579 39.6924 35.1465 39.9976 36.0647 40.0211C34.5174 41.2237 32.6135 41.8827 30.6502 41.8949C30.293 41.9139 29.9351 41.8743 29.5908 41.7776C31.5387 43.1852 33.8934 43.9252 36.3004 43.886Z" fill="#0E2368"/>
</svg>
